<?xml version="1.0" encoding="utf-8"?>
<!-- Generator: Adobe Illustrator 28.0.0, SVG Export Plug-In . SVG Version: 6.00 Build 0)  -->
<svg version="1.1" id="レイヤー_1" xmlns="http://www.w3.org/2000/svg" xmlns:xlink="http://www.w3.org/1999/xlink" x="0px"
	 y="0px" width="268.8px" height="242.99px" viewBox="0 0 268.8 242.99" style="enable-background:new 0 0 268.8 242.99;"
	 xml:space="preserve">
<style type="text/css">
	.st0{fill:#FFFFFF;stroke:#000000;stroke-width:0.8;stroke-linecap:round;stroke-linejoin:round;}
	.st1{fill:none;stroke:#000000;stroke-width:0.25;stroke-linecap:round;stroke-linejoin:round;}
	.st2{fill:#FFFFFF;stroke:#000000;stroke-linecap:round;stroke-linejoin:round;stroke-miterlimit:10;}
	.st3{fill:#FFFFFF;}
	.st4{fill:none;stroke:#000000;stroke-width:0.5;stroke-linecap:round;stroke-linejoin:round;}
	.st5{fill:none;stroke:#000000;stroke-width:0.25;}
	.st6{fill:none;stroke:#000000;stroke-width:0.5;stroke-linecap:round;stroke-linejoin:round;stroke-miterlimit:10;}
	.st7{fill:none;stroke:#000000;stroke-width:0.5;stroke-miterlimit:10;}
	.st8{fill:none;stroke:#FFFFFF;stroke-linecap:round;stroke-linejoin:round;}
	.st9{fill:#666666;}
	.st10{fill:#CCCCCC;}
	.st11{fill:none;stroke:#000000;stroke-width:0.75;stroke-miterlimit:10;}
	.st12{fill:none;stroke:#000000;stroke-width:0.5;}
	.st13{fill:none;stroke:#000000;stroke-linecap:round;stroke-linejoin:round;stroke-miterlimit:10;}
	.st14{fill:none;stroke:#FFFFFF;stroke-width:2.4;stroke-miterlimit:10;}
	.st15{fill:none;stroke:#FFFFFF;stroke-width:1.04;stroke-miterlimit:10;}
	.st16{fill:#4D4D4D;}
	.st17{fill:none;stroke:#FFFFFF;stroke-width:2;stroke-miterlimit:10;}
	.st18{fill:none;stroke:#4D4D4D;stroke-width:1.3;stroke-miterlimit:10;}
	.st19{fill:none;stroke:#4D4D4D;stroke-width:1.3;stroke-miterlimit:10;stroke-dasharray:2,1;}
	.st20{fill:none;stroke:#C77099;stroke-width:2.2;}
	.st21{fill:none;stroke:#000000;stroke-width:0.75;}
	.st22{fill:#974069;}
	.st23{fill:none;stroke:#F0F0F0;stroke-width:2;}
	.st24{fill:none;stroke:#000000;stroke-width:4.2;stroke-miterlimit:10;}
	.st25{fill:none;stroke:#FFFFFF;stroke-width:2;}
	.st26{fill:#FFFFFF;stroke:#000000;stroke-miterlimit:10;}
	.st27{fill:none;stroke:#000000;stroke-width:0.8;stroke-linecap:round;stroke-linejoin:round;}
</style>
<g id="_G24">
	<g id="_S969">
	</g>
</g>
<g id="_G15">
	<g id="_S700">
	</g>
</g>
<g>
	<g id="outline">
		<g>
			<path class="st0" d="M221.65,102.03L59.1,8.15l-2.8-1.16l-3.33-0.63h-3.48l-3.29,0.63l0,0l-1.11,0.48l-0.19,0.1h-0.1v0.05V7.57
				l-0.05,0.05h-0.1l-0.1,0.05v0.05V7.66L44.5,7.71l0,0h-0.05v0.05V7.71l0,0l-0.1,0.05v0.05V7.76h-0.05v0.05h-0.05l0,0l0,0h-0.05
				l-0.1,0.05V7.9V7.86l-0.1,0.05l0,0l0,0l0,0v0.05h-0.05l0,0l0,0h-0.05L43.83,8l0,0l0,0h-0.05l0,0h-0.05v0.05V8l-0.05,0.05l0,0
				h-0.05l-0.24,0.1l-3.87,2.22l-0.1,0.05l0,0v0.05l0,0h-0.05l0,0l-0.05,0.05l0,0h-0.05v0.05l0,0h-0.05l0,0l-0.05,0.05l0,0h-0.05
				l0,0l-0.05,0.05l0,0h-0.05l0,0v0.05h-0.05h-0.05v0.05l0,0l0,0H38.9l0,0h-0.05v0.05H38.8l0,0l0,0l-0.05,0.05l0,0H38.7l-0.05,0.05
				l0,0h-0.05l0,0l-0.05,0.05l0,0h-0.05l0,0V11l0,0h-0.05l0,0v0.05h-0.05l0,0l-0.1,0.05l0,0l-0.05,0.05l0,0l0,0h-0.05l-0.05,0.05
				l0,0l0,0h-0.05v0.05h-0.05l0,0h-0.05l0,0l0,0v0.05h-0.05l0,0h-0.05v0.05l0,0h-0.05l-0.05,0.05l0,0h-0.05l0,0l-0.05,0.05l0,0l0,0
				h-0.05l-0.05,0.05l0,0l0,0h-0.05v0.05l0,0l0,0l-0.1,0.05l0,0h-0.05v0.05H37.4l0,0h-0.05v0.05H37.3l0,0v0.05h-0.05l0,0h-0.05
				l-0.05,0.05h-0.05l0,0l0,0v0.05h-0.05l0,0h-0.05v0.05h-0.05l-0.05,0.05l0,0h-0.05l0,0l-0.05,0.05l0,0h-0.05l0,0v0.05h-0.05h-0.05
				v0.05l0,0l0,0h-0.05v0.05h-0.05l0,0h-0.05v0.05h-0.05l0,0h-0.05l-0.05,0.05l-0.05,0.05h-0.05l0,0h-0.05v0.05h-0.05l0,0l0,0v0.05
				l0,0h-0.05l0,0l-0.1,0.05l0,0L36,12.45l0,0h-0.05l0,0v0.05l0,0H35.9h-0.05v0.05l0,0h-0.05l-0.05,0.05l0,0h-0.05v0.05h-0.05l0,0
				l0,0h-0.05l0,0l-0.05,0.05l0,0h-0.05l0,0l-0.05,0.05l0,0h-0.05l0,0l-0.05,0.05l0,0h-0.05v0.05l0,0l0,0h-0.05l-0.05,0.05l0,0
				l-0.05,0.05l0,0h-0.05l0,0l-0.05,0.05l0,0h-0.05l0,0v0.05h-0.05l0,0l-0.1,0.05l0,0h-0.05l0,0h-0.05v0.05l0,0l0,0l0,0l-0.05,0.05
				l0,0h-0.05l0,0l-0.1,0.05l0,0l-0.05,0.05l0,0H34.5l0,0v0.05h-0.05l0,0l-0.05,0.05l0,0h-0.05l0,0v0.05l0,0h-0.05l0,0l-0.05,0.05
				l0,0h-0.05l0,0v0.05h-0.05l0,0l-0.1,0.05l0,0h-0.05l0,0h-0.05v0.05h-0.05l0,0h-0.05v0.05l0,0l0,0l0,0l-0.1,0.05l0,0l-0.05,0.05
				l0,0h-0.05l0,0v0.05h-0.05h-0.05v0.05h-0.05l0,0l-0.1,0.05l0,0v0.05l0,0h-0.05l0,0v0.05h-0.05l0,0h-0.1v0.05H33.2l0,0h-0.05v0.05
				H33.1l0,0h-0.05v0.05l0,0H33l0,0l-0.05,0.05l0,0l-0.05,0.05l0,0h-0.05l0,0v0.05h-0.05h-0.05v0.05h-0.05l0,0l-0.1,0.05l0,0h-0.05
				v0.05h-0.05l0,0v0.05l0,0h-0.05l0,0h-0.05v0.05h-0.1v0.05h-0.05l0,0h-0.05v0.05l0,0h-0.05l0,0l-0.1,0.05l0,0l-0.05,0.05l0,0
				l-0.05,0.05l0,0h-0.05l0,0v0.05h-0.05l0,0l-0.1,0.05l0,0h-0.05v0.05H31.7l0,0l0,0h-0.05l-0.05,0.05l0,0l0,0l0,0l-0.1,0.05v0.05
				h-0.05l0,0h-0.05v0.05l0,0h-0.05l-0.05,0.05l0,0h-0.05l0,0l-0.1,0.05l0,0l-0.05,0.05l0,0l0,0l0,0v0.05h-0.05l0,0l-0.1,0.05l0,0
				l-0.1,0.05l0,0l0,0h-0.05l-0.05,0.05l0,0h-0.05l0,0l-0.05,0.05l0,0l-0.05,0.05l0,0h-0.05l0,0v0.05h-0.05l-0.05,0.05l0,0h-0.05
				l0,0l-0.1,0.05l0,0l-0.05,0.05l0,0h-0.05l0,0v0.05H30.2l-0.05,0.05l0,0h-0.1v0.05h-0.05l0,0h-0.05v0.05l0,0h-0.05l0,0l-0.1,0.05
				l0,0l-0.05,0.05l0,0v0.05h-0.05h-0.05v0.05h-0.05l0,0l-0.1,0.05l0,0l-0.05,0.05l0,0h-0.05l0,0v0.05h-0.05h-0.05v0.05h-0.05l0,0
				h-0.05v0.05h-0.05l0,0h-0.05v0.05l0,0h-0.05l0,0l-0.1,0.05l0,0l-0.1,0.05l0,0l-0.05,0.05l0,0l0,0l0,0v0.05H28.8l0,0l-0.1,0.05
				l0,0l-0.1,0.05l0,0v0.05h-0.05h-0.05l0,0h-0.05v0.05h-0.1v0.05h-0.05v0.05l0,0h-0.05l-0.05,0.05l0,0h-0.05l0,0l-0.1,0.05l0,0
				l-0.05,0.05l0,0h-0.05l0,0v0.05h-0.05l0,0l-0.05,0.05l0,0l-0.1,0.05l0,0v0.05h-0.05h-0.05l0,0h-0.05l0,0l-0.1,0.05v0.05h-0.1
				v0.05l0,0l0,0l-0.05,0.05l0,0h-0.05l0,0l-0.1,0.05l0,0l-0.1,0.05l0,0v0.05h-0.05h-0.05v0.05h-0.05l0,0l-0.05,0.05l0,0h-0.05l0,0
				h-0.05v0.05l0,0h-0.05l0,0l-0.1,0.05l0,0l-0.1,0.05v0.05l0,0h-0.05l-0.05,0.05l0,0l0,0l0,0l-0.1,0.05l0,0L26.33,18l0,0v0.05
				h-0.05h-0.05v0.05h-0.05l0,0l-0.1,0.05l0,0h-0.05v0.05l0,0H26l0,0l-0.1,0.05l0,0l-0.1,0.05l0,0l-0.1,0.05l0,0v0.05h-0.05l0,0
				l-0.05,0.05l0,0l-0.1,0.05l0,0v0.05h-0.05h-0.05v0.05h-0.05l0,0h-0.1v0.05h-0.1v0.05l0,0l0,0l-0.05,0.05l0,0h-0.05l0,0l-0.1,0.05
				l0,0l-0.1,0.05l0,0v0.05h-0.05l0,0l-0.1,0.05l0,0l-0.05,0.05l0,0l-0.1,0.05l0,0v0.05h-0.05l0,0h-0.1v0.05h-0.1v0.05l0,0h-0.05
				l-0.05,0.05l0,0h-0.05l0,0l-0.05,0.05l0,0l-0.1,0.05l0,0v0.05h-0.05h-0.05v0.05h-0.05l0,0l-0.1,0.05l0,0l-0.05,0.05l0,0l0,0
				h-0.05v0.05h-0.1v0.05h-0.1v0.05h-0.1v0.05l0,0h-0.05l0,0l-0.1,0.05l0,0l-0.05,0.05l0,0v0.05h-0.05h-0.05v0.05H23.1l0,0L23,19.94
				l0,0l-0.1,0.05l0,0l0,0h-0.05v0.05l0,0h-0.05l0,0l-0.1,0.05v0.05h-0.1v0.05l0,0h-0.05l0,0l-0.1,0.05l0,0l-0.1,0.05l0,0
				l-0.05,0.05l0,0v0.05h-0.05l0,0l-0.1,0.05l0,0h-0.1v0.05h-0.1v0.05l0,0h-0.05l0,0l-0.05,0.05l0,0l-0.1,0.05v0.05l0,0h-0.05l0,0
				l-0.1,0.05l0,0l-0.1,0.05l0,0l-0.1,0.05l0,0v0.05l0,0l0,0l-0.1,0.05l0,0h-0.1v0.05h-0.1V21l0,0h-0.05l0,0l-0.1,0.05l0,0
				l-0.05,0.05l0,0l-0.1,0.05l0,0v0.05h-0.05l0,0l-0.1,0.05l0,0l-0.1,0.05l-0.05,0.05h-0.05l0,0l0,0l-0.1,0.1l-2.13,1.64l-0.05,0.1
				v0.05l0,0l-0.05,0.05l-0.05,0.05l-0.05,0.05l-0.92,1.69l0,0h-0.05v0.05l-0.14,0.24l-0.05,0.39v2.13v0.97l-0.14,4.49v-0.77
				c-0.05,0.68,0,1.35,0.1,2.03l0.19,1.3l0.77,1.4l3.24,4.16h0.05l0.39,0.24l0,0l0.05,0.05l0.14,0.1l0,0h0.05l0,0l0.05,0.05v-0.05
				v0.05h0.05l0,0l3.58,2.17h0.05v0.05l0.14,0.1h0.05l12.81,7.78l0.05,0.05l0.43,0.19l0,0v0.05h0.05h0.05v0.05l0,0h0.05l0.19,0.14
				l0.19,0.05l0.63,0.39l24.4,14.79l0.14,0.05v0.05l0,0l0,0l0.1,0.05l0,0h0.05v0.05h0.05l0,0l0,0h0.05v0.05l0.1,0.05l0,0h0.05v0.05
				h0.05l0,0l0,0h0.05v0.05l0.05,0.05l0,0h0.05l0,0l0.05,0.05l0,0l0,0h0.05l0,0l0.1,0.05v0.05h0.05l0,0l0.05,0.05v-0.05v0.05h0.05
				l0,0l0.05,0.05l0,0h0.05v0.05h0.05l0,0l0,0h0.05v0.05l0.1,0.05l0,0h0.05l0,0l0.05,0.05l0,0l0,0h0.05v0.05h0.05v0.05h0.05l0,0
				l0.05,0.05l0,0l0,0h0.05l0,0l0.1,0.05l0,0h0.05v0.05l0,0h0.05l0,0l0.1,0.1l0,0h0.05v0.05l0.1,0.05l0,0h0.05l0,0l0.05,0.05l0,0
				l0,0h0.05l0,0l0.1,0.05v0.05h0.05l0,0l0.05,0.05v-0.05v0.05l0,0l0,0l0.1,0.05l0,0h0.05v0.05h0.05l0,0l0,0h0.05v0.05l0.1,0.05l0,0
				h0.05v0.05h0.05l0,0l0,0l0,0v0.05l0.1,0.05l0,0h0.05l0,0l0.05,0.05l0,0l0,0h0.05l0,0l0.1,0.05v0.05h0.05l0,0h0.05l0,0l0,0h0.05
				v0.05l0.05,0.05l0,0h0.05v0.05l0,0h0.05l0,0l0.14,0.1l0,0h0.05l0,0l0.14,0.1v0.05h0.05l0,0l0.1,0.05v0.05h0.05l0,0h0.05l0,0l0,0
				h0.05v0.05l0.1,0.05l0,0h0.05v0.05l0,0l0,0l0,0h0.05v0.05l0.1,0.05l0,0h0.05l0,0l0.05,0.05l0,0l0,0h0.05l0,0l0.1,0.05v0.05h0.05
				l0,0l0.05,0.05v-0.05v0.05l0,0l0,0l0.1,0.05l0,0h0.05v0.05h0.05l0,0l0,0h0.05v0.05l0.1,0.05l0,0h0.05v0.05h0.05l0,0l0,0l0,0v0.05
				l0.1,0.05l0,0h0.05l0,0l0.19,0.1v0.05h0.05l0,0l0.14,0.1l0,0h0.05v0.05l0.1,0.05l0,0h0.05l0,0l0.05,0.05l0,0l0,0h0.05v0.05h0.1
				v0.05l0,0l0,0l0.05,0.05V71.4v0.05h0.05l0,0l0.1,0.05l0,0h0.05v0.05h0.05l0,0l0,0h0.05v0.05l0.1,0.05l0,0h0.05v0.05l0,0l0,0l0,0
				h0.05v0.05l0.1,0.05l0,0h0.05l0,0l0.05,0.05l0,0l0,0h0.05l0,0l0.1,0.05v0.05h0.05l0,0l0.14,0.1l0,0h0.05v0.05l0.19,0.1l0,0h0.05
				v0.05l0.14,0.1l0,0h0.05l0,0l0.19,0.1l0,0h0.05v0.05l0.05,0.05l0,0h0.05v0.05h0.05l0,0l0,0h0.05v0.05l0.1,0.05l0,0h0.05l0,0
				l0.05,0.05l0,0l0,0h0.05v0.05h0.1v0.05l0,0l0,0l0.05,0.05V72.8v0.05h0.05l0,0l0.1,0.05l0,0h0.05v0.05h0.05l0,0l0,0h0.05v0.05
				l0.1,0.05l0,0l0,0v0.05l0.19,0.1l0,0h0.05l0,0l0.19,0.1v0.05h0.05l0,0l0.14,0.1l0,0h0.05v0.05l0.19,0.1l0,0h0.05v0.05h0.05v0.05
				h0.05l0,0l0.05,0.05v-0.05v0.05h0.05l0,0l0.1,0.05v0.05h0.05l0,0h0.05l0,0l0,0h0.05v0.05l0.05,0.05l0,0h0.05v0.05h0.05l0,0l0,0
				h0.05v0.05l0.1,0.05l0,0h0.05l0,0l0.14,0.1v0.05h0.05l0,0l0.19,0.1l0,0h0.05v0.05l0.19,0.1l0,0l0,0v0.05l0.19,0.1l0,0h0.05l0,0
				l0.19,0.1v0.05l0,0l0,0l0.1,0.05l0,0h0.05v0.05h0.05l0,0l0,0h0.05v0.05l0.1,0.05l0,0h0.05v0.05h0.05l0,0l0,0h0.05v0.05h0.05v0.05
				h0.05l0,0l0.05,0.05v-0.05v0.05h0.05l0,0l0.1,0.05l0,0h0.05v0.05l0.14,0.1l0,0h0.05v0.05l0.19,0.1l0,0h0.05l0,0l0.14,0.1v0.05
				h0.05l0,0l0.19,0.1l0,0h0.05v0.05l0.14,0.1l0,0h0.05v0.05h0.1v0.05h0.05l0,0l0.05,0.05l0,0l0,0h0.05l0,0l0.1,0.05v0.05h0.05l0,0
				h0.05l0,0l0,0l0,0v0.05l0.1,0.05l0,0h0.05v0.05l0.19,0.1l0,0h0.05v0.05l0.14,0.05v0.05h0.05l0,0l0.19,0.1l0,0h0.05v0.05l0.14,0.1
				l0,0h0.05v0.05l0.19,0.1l0,0h0.05l0,0l0.14,0.1V77h0.05l0,0l0.1,0.05l0,0h0.05v0.05h0.05l0,0l0,0h0.05v0.05l0.1,0.05l0,0h0.05
				v0.05l0,0l0,0l0,0h0.05v0.05h0.1v0.05h0.05l0,0l0.19,0.1v0.05h0.05l0,0l0.14,0.1l0,0h0.05v0.05l0.19,0.1l0,0h0.05v0.05l0.14,0.05
				v0.05h0.05l0,0l0.19,0.1l0,0h0.05v0.05l0.14,0.1l0,0h0.05v0.05l0.1,0.05l0,0H82l0,0l0.05,0.05l0,0l0,0h0.05l0,0l0.1,0.05v0.05
				l0,0l0,0l0.19,0.1l0,0h0.05v0.05l0.19,0.1l0,0h0.05v0.05l0.14,0.05v0.05h0.05l0,0l0.19,0.1v0.05h0.05l0,0l0.14,0.1l0,0h0.05v0.05
				l0.19,0.1l0,0h0.05v0.05l0.14,0.05v0.05h0.05l0,0l0.19,0.1l0,0h0.05v0.05l0.05,0.05l0,0h0.05v0.05l0.19,0.05v0.05h0.05l0,0
				l0.19,0.1v0.05l0,0l0,0l0.19,0.1l0,0h0.05v0.05l0.19,0.1l0,0l0,0v0.05l0.19,0.05v0.05h0.05l0,0l0.19,0.1l0,0h0.05v0.05l0.14,0.1
				l0,0h0.05l101.96,61.13l0.84,0.38l1.55,0.39l1.59,0.19l2.03,0.05l2.61-0.29l2.56-0.72l2.05-0.96l11.4-6.57l5.75-3.33l3.58-1.88
				l1.64-1.16l1.01-1.16l2.71-5.65l0.05-0.05l0.05-0.24v-0.14v-0.05l0.24-1.26l0.1-1.79l-0.14-6.62v0.97v-1.98v-2.13l-0.1-0.34
				l-0.19-0.34l-1.11-1.93l-2.08-1.69l-0.34-0.19L221.65,102.03z"/>
		</g>
	</g>
	<g id="_G3">
		<g id="_S257">
			<g>
				<path class="st1" d="M87.36,62.46l-0.87-0.72l-0.39-0.82l0.14-0.87l0.63-0.82l1.11-0.63l1.35-0.34l1.5-0.1l1.45,0.24l1.26,0.48
					l10.2,5.9l0.87,0.72l0.39,0.82l-0.14,0.87l-0.63,0.82l-1.06,0.63l-1.4,0.34l-1.5,0.1l-1.45-0.24l-1.26-0.48L87.36,62.46
					 M76.88,56.18l-0.43-0.87l0.14-0.87l0.63-0.77l1.11-0.63l1.35-0.39l1.5-0.05l1.5,0.19l1.21,0.53l0.87,0.72l0.39,0.82l-0.1,0.87
					l-0.68,0.82l-1.06,0.58l-1.35,0.39l-1.55,0.1l-1.45-0.24L77.7,56.9L76.88,56.18 M46.87,38.88l-0.39-0.87l0.14-0.87l0.63-0.77
					l1.06-0.63l1.35-0.39l1.55-0.05l1.45,0.19l1.26,0.53l0.87,0.68l0.39,0.87l-0.14,0.87l-0.63,0.77l-1.06,0.63l-1.4,0.39l-1.5,0.05
					L49,40.09l-1.26-0.53L46.87,38.88 M36.63,32.93l-0.39-0.82l0.14-0.87l0.63-0.82l1.06-0.63l1.4-0.34l1.5-0.1l1.45,0.24l1.26,0.48
					l0.87,0.72l0.39,0.87l-0.14,0.87l-0.63,0.77l-1.06,0.63l-1.4,0.39l-1.5,0.05l-1.45-0.24l-1.26-0.48L36.63,32.93 M108.62,74.3
					l1.35,0.19l1.4-0.1l1.3-0.34l0.97-0.58l0.63-0.72l0.1-0.82l-0.34-0.77l-0.82-0.68L112.06,70l-1.35-0.19l-1.45,0.05L108,70.24
					l-1.01,0.58l-0.58,0.72l-0.14,0.82l0.39,0.77l0.82,0.68L108.62,74.3 M152.5,83.77l0.1,0.14h-0.1l-11.79,6.81
					c0,0-0.93,0.44-1.26,0.53c-0.35,0.1-1.08,0.17-1.45,0.19c-0.37,0.02-1.13,0.01-1.5-0.05c-0.36-0.05-1.06-0.26-1.4-0.39
					c-0.27-0.1-1.06-0.48-1.06-0.48 M143.22,78.4l0.05,0.14h-0.1l-11.79,6.81c0,0-0.93,0.39-1.26,0.48
					c-0.35,0.1-1.08,0.22-1.45,0.24c-0.37,0.02-1.13-0.04-1.5-0.1c-0.34-0.05-1.03-0.21-1.35-0.34c-0.29-0.12-1.06-0.63-1.06-0.63
					 M133.9,73.04l0.1,0.1l-0.14,0.05L122.06,80c0,0-0.89,0.4-1.21,0.48c-0.35,0.1-1.08,0.22-1.45,0.24
					c-0.39,0.02-1.16-0.04-1.55-0.1c-0.34-0.05-1.03-0.22-1.35-0.34c-0.28-0.1-1.06-0.53-1.06-0.53 M133.8,87.78l0.87-0.72
					l11.79-6.76v-0.05 M124.52,82.37l0.82-0.68l11.79-6.81l0,0 M115.2,77l0.82-0.68l11.79-6.81h0.05 M48.18,35.74l1.4-0.34
					 M51.36,35.3l1.4,0.19 M108.19,61.01l-0.39-0.87l0.1-0.87l0.68-0.77l1.06-0.63l1.35-0.39l1.55-0.05l1.45,0.24l1.26,0.48
					l0.87,0.72l0.39,0.82l-0.14,0.87l-0.63,0.82l-1.06,0.63l-1.4,0.34l-1.5,0.1l-1.45-0.24l-1.26-0.48L108.19,61.01 M97.99,55.11
					l-0.39-0.82l0.14-0.87l0.63-0.82l1.06-0.63l1.4-0.34l1.5-0.1l1.45,0.24l1.26,0.48l0.87,0.72l0.39,0.87l-0.14,0.87l-0.63,0.77
					l-1.06,0.63l-1.4,0.34l-1.5,0.1l-1.45-0.24l-1.26-0.48L97.99,55.11 M120.08,67.63l1.35,0.24l1.45-0.1l1.26-0.34l1.01-0.58
					l0.58-0.72l0.14-0.82l-0.39-0.77l-0.82-0.68l-1.16-0.48l-1.35-0.19l-1.4,0.05l-1.3,0.34l-0.97,0.58l-0.63,0.77l-0.1,0.82
					l0.34,0.77l0.82,0.68L120.08,67.63 M152.26,83.48l-5.56-3.19 M142.98,78.11l-5.56-3.24 M133.65,72.75l-5.56-3.24 M153.03,83.33
					l-0.19-0.1l-0.1,0.1l-5.56-3.24l0.05-0.1 M143.46,77.97l-5.56-3.24v-0.1 M134.14,72.61l-5.56-3.24l0.05-0.1 M152.93,83.09
					l0.1,0.1l0.1-0.1l11.79-6.76l0.77-0.68l0.39-0.82l-0.14-0.77l-0.58-0.77l-1.01-0.58l-1.26-0.34l-1.4-0.05l-1.4,0.19l-1.16,0.48
					l-11.79,6.81l-0.05,0.05 M143.61,77.73l0.1,0.05l0.1-0.05l11.79-6.81l0.82-0.63l0.34-0.82l-0.1-0.82l-0.63-0.72l-0.97-0.58
					l-1.3-0.34l-1.4-0.05L151,67.15l-1.16,0.48l-11.79,6.76l-0.1,0.1 M134.28,72.36l0.1,0.05l0.1-0.05l11.79-6.81l0.82-0.68
					l0.39-0.77l-0.14-0.82l-0.58-0.72l-1.01-0.58l-1.26-0.34l-1.45-0.1l-1.35,0.24l-1.16,0.43l-11.79,6.81l-0.05,0.1 M109.49,57.92
					l1.45-0.39 M49.34,14.09l1.59,0.24l1.64-0.05l1.55-0.43l1.16-0.68L56,12.3l0.14-0.97l-0.43-0.92l-0.97-0.77l-1.35-0.58
					l-1.64-0.24l-1.64,0.1l-1.5,0.39L47.4,9.98l-0.68,0.87l-0.14,0.97l0.39,0.92l0.97,0.82L49.34,14.09 M110.32,49.22l-0.87-0.72
					l-0.39-0.87l0.14-0.87l0.63-0.77l1.11-0.63l1.35-0.34l1.5-0.1l1.5,0.24l1.21,0.48l10.2,5.9l0.87,0.72l0.39,0.82l-0.14,0.87
					l-0.63,0.82l-1.06,0.58l-1.4,0.39l-1.5,0.1l-1.45-0.24l-1.26-0.53L110.32,49.22 M99.83,42.94l-0.43-0.87l0.14-0.87l0.63-0.77
					l1.11-0.63l1.35-0.39l1.5-0.05l1.5,0.19l1.21,0.53l0.87,0.68l0.39,0.87L108,42.5l-0.68,0.77l-1.06,0.63l-1.35,0.39l-1.5,0.05
					l-1.5-0.19l-1.21-0.53L99.83,42.94 M69.82,25.59l-0.39-0.82l0.14-0.87l0.63-0.82l1.06-0.58l1.35-0.39l1.55-0.1l1.45,0.24
					l1.26,0.48l0.87,0.72l0.39,0.87l-0.14,0.87l-0.63,0.77L76.3,26.6l-1.4,0.39l-1.5,0.05l-1.45-0.24l-1.26-0.48L69.82,25.59
					 M59.58,19.69l-0.39-0.87l0.14-0.87l0.63-0.77l1.06-0.63l1.4-0.34l1.5-0.1l1.45,0.24l1.26,0.48l0.87,0.72l0.39,0.82l-0.14,0.87
					l-0.63,0.82l-1.06,0.63l-1.4,0.34l-1.5,0.1l-1.45-0.24l-1.26-0.48L59.58,19.69 M131.58,61.01l1.35,0.24l1.4-0.1l1.3-0.34
					l0.97-0.58l0.63-0.72l0.1-0.82l-0.34-0.77l-0.82-0.68l-1.16-0.48l-1.35-0.19l-1.45,0.05l-1.26,0.34l-1.01,0.58l-0.58,0.77
					l-0.14,0.77l0.39,0.82l0.82,0.68L131.58,61.01"/>
			</g>
			<g>
				<path class="st1" d="M120.66,64.39v0.14l-0.1,0.14l-0.19,0.1l-0.24,0.05h-0.24h-0.24l-0.19-0.1l-0.14-0.14l-0.1-0.14l0.05-0.14
					 M112.1,46.17l-0.05,0.14l-0.1,0.14l-0.19,0.1l-0.19,0.05l-0.29,0.05l-0.24-0.05l-0.19-0.1l-0.14-0.1l-0.05-0.14v-0.14"/>
			</g>
			<g>
				<path class="st1" d="M146.85,80.29l-0.05-0.05h-0.19h-0.14l-0.1,0.05l-11.79,6.81l-0.87,0.72l-0.05,0.05l-0.39,0.87v0.1v1.59
					 M137.57,74.92l-0.1-0.05h-0.14h-0.19l-0.05,0.05l-11.79,6.81l-0.87,0.72l-0.05,0.05l-0.39,0.87l-0.05,0.1v1.59 M128.19,69.51
					L128.19,69.51L128,69.46l-0.14,0.05l-0.1,0.05l-11.79,6.81l-0.87,0.68l-0.05,0.1l-0.39,0.87v0.1l-0.05,1.59 M85.82,62.41v-1.16
					l0.14-0.92v-0.14l0.1-0.05l0.68-0.87l1.11-0.63l0.05-0.05l1.4-0.39l1.55-0.05l1.55,0.24l1.26,0.48 M76.15,56.8v-1.11l0.14-0.97
					l0.05-0.1l0.05-0.1l0.68-0.82l1.11-0.63l0.05-0.05l1.4-0.39l1.55-0.1l1.55,0.24l1.26,0.53l0.05,0.05l0.92,0.72L85,54.2
					l0.43,0.92l0.05,0.1v1.64 M46.19,39.51v-1.16l0.14-0.92v-0.1l0.05-0.1l0.68-0.82l1.11-0.68h0.1l1.4-0.39l1.55-0.1l1.5,0.24
					l1.26,0.53h0.1l0.92,0.77l0.05,0.1l0.43,0.87v0.14v1.64 M35.95,33.61v-1.16l0.14-0.92v-0.14l0.05-0.05l0.68-0.87l1.16-0.63
					l0.05-0.05l1.4-0.39l1.55-0.05l1.5,0.24l1.3,0.48l0.05,0.05l0.92,0.77l0.05,0.05l0.43,0.92v0.1v1.64 M105.97,73.86V72.8v-0.05
					V72.7l0.14-0.87v-0.1l0.1-0.1l0.63-0.77l1.01-0.63l0.05-0.05l1.35-0.34l1.45-0.05l1.4,0.19l1.21,0.48l0.05,0.05l0.87,0.68
					l0.05,0.1l0.39,0.87v0.1l0.05,1.5v0.05v0.05 M105.29,68.3L105.29,68.3v-1.64v-0.1l-0.43-0.92l-0.05-0.1l-0.92-0.72l-10.15-5.9
					 M107.47,61.64v-1.11l0.14-0.97l0.05-0.1l0.05-0.1l0.68-0.82l1.11-0.63l0.05-0.05l1.45-0.39l1.55-0.1l1.5,0.24l1.26,0.53
					l0.1,0.05l0.92,0.72l0.05,0.1l0.39,0.92l0.05,0.1v1.64 M97.32,55.79v-1.16l0.14-0.92v-0.14l0.05-0.05l0.68-0.87l1.11-0.63
					 M117.42,67.19l0.05-1.11l0.1-0.87l0.05-0.1l0.05-0.1l0.63-0.77l1.06-0.63 M152.5,83.57l-0.05-0.05h-0.05l-0.05-0.05l-5.56-3.19
					 M143.32,78.65v-0.19l-0.05-0.1l0,0l-0.05-0.14l-0.1-0.05v-0.05h-0.05l-5.61-3.24 M133.99,73.23v-0.14v-0.1v-0.05l-0.1-0.1
					l-0.05-0.05l-0.05-0.05h-0.05l-5.56-3.24 M146.99,80.29v-0.14l0.05-0.14l0.05-0.1l0.1-0.1l11.79-6.76l0.1-0.05l1.16-0.48
					l1.4-0.24l1.45,0.1l1.35,0.34l0.05,0.05l1.06,0.58l0.63,0.82l0.05,0.05v0.14l0.14,0.87v1.01v0.1l0,0 M128.44,69.32v-0.05
					l0.05-0.1l0.1-0.1l11.79-6.81l0.05-0.05l1.21-0.48l1.4-0.19l1.45,0.05l1.35,0.39h0.05l1.01,0.63l0.68,0.77l0.05,0.1v0.1
					l0.14,0.87v1.16 M137.91,74.44l11.79-6.81h0.05l1.21-0.48l1.4-0.24l1.45,0.1l1.3,0.34l0.05,0.05l1.06,0.58l0.63,0.77l0.05,0.1
					l0.05,0.1l0.14,0.92v0.92v0.14v0.05 M119.4,63.57l1.3-0.34l1.45-0.1l1.4,0.24l1.21,0.48l0.1,0.05l0.82,0.68l0.05,0.1l0.43,0.82
					v0.14v1.59 M99.4,51.97l1.4-0.39l1.55-0.05l1.5,0.24l1.3,0.48l0.05,0.05l0.92,0.77l0.05,0.05l0.43,0.92v0.1v1.64 M46.24,13.32
					v-1.16l0.14-1.01l0.05-0.1l0.05-0.1l0.72-0.92l1.26-0.68l0.05-0.05l1.55-0.43l1.69-0.05l1.69,0.24l1.4,0.58h0.05l1.01,0.82
					l0.05,0.1l0.43,1.01l0.05,0.1v1.69 M108.77,49.12v-1.11l0.14-0.97v-0.1l0.1-0.1l0.68-0.82l1.11-0.63 M99.11,43.56v-1.01V42.5
					v-0.05V42.4l0.14-0.92l0.05-0.1l0.05-0.1l0.68-0.82l1.11-0.68h0.05l1.4-0.39l1.55-0.1l1.55,0.24l1.26,0.53h0.05l0.92,0.77
					l0.1,0.1l0.39,0.87l0.05,0.14v1.45v0.19 M69.15,26.27v-1.11v-0.05l0.14-0.92v-0.1l0.05-0.1l0.68-0.87l1.11-0.63l0.1-0.05
					l1.4-0.39l1.55-0.05l1.5,0.24l1.3,0.48l0.05,0.05l0.92,0.77l0.05,0.05l0.43,0.92v0.1v1.64 M58.9,20.32v-1.11l0,0l0.14-0.97v-0.1
					l0.05-0.1l0.68-0.82l1.16-0.63l0.05-0.05l1.4-0.39l1.55-0.05l1.5,0.19l1.3,0.53l0.05,0.05l0.92,0.72l0.05,0.1l0.43,0.92v0.1
					v1.64 M128.92,60.57v-1.11l0.14-0.87v-0.14l0.1-0.05l0.63-0.82L130.8,57l0.1-0.05l1.3-0.34l1.45-0.1l1.4,0.24l1.21,0.48
					l0.05,0.05l0.87,0.68l0.05,0.1l0.39,0.82l0.05,0.14v1.59 M110.85,45.35l1.4-0.39l1.55-0.05l1.55,0.19l1.26,0.53l0.05,0.05
					l10.2,5.9l0.92,0.72l0.05,0.1l0.43,0.87v0.14v1.64"/>
			</g>
		</g>
	</g>
	<g id="_G16">
		<g id="_S809">
			<g>
				<path class="st1" d="M184.68,137.31l0.52,0.27c0,0,1.54,0.67,2.09,0.84c0.62,0.19,1.44,0.5,1.94,0.62
					c0.55,0.13,1.57,0.31,2.06,0.34c0.63,0.05,1.89,0.08,2.51,0.05c0.81-0.04,2.44-0.22,3.24-0.39c0.55-0.11,7.62-3.37,7.62-3.37
					 M38.46,51.01"/>
			</g>
			<g>
				<path class="st1" d="M184.68,137.31L39.14,52.21"/>
			</g>
			<g>
				<path class="st1" d="M38.9,51.88l-0.34-0.53l-0.29-0.72l-0.14-1.06l-0.05-0.92l-0.05-3.24v-0.1l0.05-0.24l0.05-0.05l0.1-0.19
					l0.1-0.1l0.14-0.1 M189.97,142.28l1.59,0.19l2.03,0.05 M65.14,68.01l1.59,0.97 M66.78,69.03l1.84,1.11 M68.66,70.14l16.96,10.29
					"/>
			</g>
		</g>
	</g>
	<g id="_G7">
		<g id="_S646">
			<g>
				<path class="st1" d="M16.91,34.58l-0.1-1.26l0.1-4.25"/>
			</g>
		</g>
	</g>
	<g id="_G6">
		<g id="_S642">
			<g>
				<path class="st1" d="M57.65,26.36l-0.05-0.34l-0.1-0.63v-0.05l-0.29-0.43l-0.39-0.48l-0.58-0.43l-0.53-0.29v-0.05l-0.97-0.39
					l-0.43-0.1l-1.4-0.24h-0.05 M46.48,25.83l0.05-0.14l0.05-0.14l0.53-0.92h0.05l0.97-0.77l0,0l1.3-0.58l1.55-0.34h0.05
					 M51.03,22.98l1.88-0.05"/>
			</g>
		</g>
	</g>
	<g id="_G4">
		<g id="_S541">
			<g>
				<path class="st1" d="M67.3,44.81l0.14-1.35v-0.05 M67.54,43.36h0.05h0.05h0.1h0.05l0.05,0.05l1.21,0.68l1.21,0.72h0.05
					 M83.88,44.86L83.88,44.86l0.05-0.05h0.05l2.42-1.4l0.05-0.05h0.05h0.05h0.05h0.1l0.05,0.05l0,0v0.05l0.19,1.35 M67.3,33.65
					h0.05l0.05-0.05h0.05h0.05l2.61,0.24h0.05l0.05,0.05h0.05 M84.02,33.84h0.05l2.61-0.24h0.05h0.05l0.05,0.05"/>
			</g>
			<g>
				<path class="st1" d="M67.3,44.81l0.14-1.26l0,0v-0.14 M67.69,43.46l0.1,0.05h0.05l1.21,0.72l1.21,0.68 M83.93,44.91h0.05
					l2.42-1.4l0,0h0.05l0.1-0.05h0.05l0.05,0.05h0.05 M67.45,33.6v0.1h0.05l2.61,0.24h0.05 M86.87,44.81l-0.14-1.26l0,0v-0.14
					 M84.02,33.84v0.14l0.05-0.05l2.61-0.24h0.05l0.05,0.05h0.05v-0.1"/>
			</g>
			<g>
				<path class="st1" d="M70.3,44.86L70.3,44.86v0.05l-0.05,0.05H70.2h-0.05h-0.05l-2.61-0.05h-0.05H67.4l-0.05-0.05H67.3
					 M70.3,33.94v0.05v0.05h-0.05v0.05l-2.42,1.4h-0.05h-0.1h-0.05h-0.05h-0.05l-0.05-0.05l-0.05-0.05l0,0l-0.14-1.64v0.1v0.24
					 M86.87,44.86h-0.05l-0.05,0.05h-0.05h-0.05l-2.61,0.05h-0.05h-0.05h-0.05l-0.05-0.05v-0.05l0,0 M86.87,34.03l0.05-0.19v-0.1
					l-0.19,1.64l0,0l-0.05,0.05l-0.05,0.05h-0.05h-0.05h-0.05h-0.1l0,0l-1.21-0.68l-1.21-0.72l-0.05-0.05l-0.05-0.05l0,0l0,0"/>
			</g>
		</g>
	</g>
	<g>
		<path class="st1" d="M188.02,126.05l3.19,0.63h3.33l3.19-0.63l2.71-1.11l22.76-13.14l1.98-1.55l1.01-1.84v-1.93l-1.01-1.84
			l-1.98-1.59L58.81,8.15L56.1,7.03l-3.19-0.63h-3.33l-3.19,0.63l-2.71,1.11L20.92,21.29l-1.93,1.55l-1.06,1.84v1.93l1.06,1.84
			l1.93,1.59l164.39,94.9L188.02,126.05 M20.44,21.43L43.15,8.29 M204.25,127.55l0.1,0.05l0.1-0.1l0.05,0.14l0.24,5.46l0.05,1.93
			v0.48 M59.1,30.71l1.47-0.84l0.81,0.34 M48.03,23.75 M219.18,128.03l0.39-0.53l0.29-0.58l0.19-0.68l0.1-0.43"/>
	</g>
	<g>
		<path class="st1" d="M187.68,129.96l-2.95-1.26h-0.05L20.29,33.76l-2.17-1.69l-0.05-0.1l-0.92-1.64 M17.01,25.35l-0.05,0.39v2.13
			v2.03v0.1 M200.58,128.95l-2.71,1.11l-3.29,0.63h-3.43l-3.24-0.63l-2.75-1.16 M166.66,75.7l-0.39,0.92l-0.97,0.77l-24.4,14.06
			l-1.3,0.53L138,92.22l-1.59-0.05l-1.5-0.43l-1.11-0.63l-0.72-0.87 M157.38,70.33l-0.43,0.92l-0.92,0.72l-24.4,14.11l-1.35,0.53
			l-1.55,0.24l-1.64-0.05l-1.45-0.43l-1.16-0.63l-0.68-0.87 M148.05,64.97l-0.39,0.87l-0.97,0.77l-24.4,14.11l-1.3,0.53l-1.59,0.24
			l-1.59-0.1l-1.5-0.39l-1.16-0.68l-0.68-0.82 M105.44,68.11l-0.72,0.92l-1.21,0.68l-1.55,0.43l-1.74,0.1L98.57,70l-1.45-0.58
			l-10.15-5.9l-1.01-0.82l-0.43-0.97 M85.62,56.66l-0.72,0.92l-1.26,0.68l-1.55,0.43l-1.74,0.1l-1.64-0.24l-1.4-0.58l-1.01-0.82
			l-0.43-0.97 M55.62,39.36l-0.72,0.87l-1.21,0.72l-1.59,0.43l-1.69,0.1l-1.69-0.29l-1.4-0.58l-0.97-0.77l-0.48-0.97 M45.37,33.42
			l-0.72,0.92l-1.21,0.72l-1.55,0.39l-1.74,0.1l-1.64-0.24l-1.45-0.58L36.1,33.9l-0.43-0.97 M114.86,73.67l-0.68,0.82l-1.16,0.68
			l-1.5,0.39l-1.59,0.1l-1.59-0.24l-1.3-0.53l-0.92-0.77l-0.43-0.92 M198.11,129.96l2.9-1.26h0.1l22.76-13.14l2.13-1.69l0.05-0.1
			l0.92-1.64 M57.79,26.36l-0.53,1.11l-1.16,0.92l-1.59,0.68l-1.93,0.29l-1.98-0.1l-1.79-0.48l-1.45-0.82l-0.82-1.01l-0.14-1.16
			 M116.94,61.49l-0.72,0.92L115,63.09l-1.59,0.43l-1.69,0.1l-1.69-0.24l-1.4-0.58l-1.01-0.82l-0.43-0.97 M106.74,55.6l-0.72,0.92
			l-1.21,0.72l-1.55,0.39l-1.74,0.1l-1.69-0.24l-1.4-0.58l-0.97-0.82l-0.48-0.97 M126.31,67.05l-0.68,0.82l-1.16,0.68l-1.45,0.39
			l-1.64,0.1l-1.55-0.24l-1.35-0.53l-0.92-0.77l-0.43-0.92 M61.42,30.47l-0.1,0.14l-0.14,0.14l-1.01,0.58l-0.24,0.1h-0.24h-0.24
			l-0.24-0.05L59,31.29l-0.1-0.14L58.85,31 M56.58,13.22l-0.82,0.97l-1.3,0.77l-1.69,0.48l-1.88,0.05l-1.84-0.24l-1.55-0.63
			l-1.06-0.92l-0.48-1.01 M204.59,135.86l0.34,0.19c0,0,0.32,0.14,0.43,0.14c0.25,0,0.97-0.29,0.97-0.29l11.55-6.72h0.05l0.48-0.39
			l0.39-0.29l0.39-0.48l0.43-0.53l0.34-0.68l0.14-0.63l0.05-0.39l0.05-0.77l0.05-0.92v-0.14v-0.34l0.24-5.32v-0.1l-0.05-0.1
			l-0.05-0.1 M128.39,54.87l-0.72,0.92l-1.21,0.68l-1.55,0.43l-1.74,0.1l-1.64-0.29l-1.45-0.53l-10.15-5.9l-1.01-0.82l-0.43-0.97
			 M108.58,43.42l-0.72,0.87l-1.26,0.72l-1.55,0.43l-1.74,0.1l-1.64-0.29l-1.4-0.58l-1.01-0.77l-0.43-0.97 M78.57,26.12l-0.72,0.87
			l-1.21,0.72l-1.59,0.43l-1.69,0.05l-1.69-0.24l-1.4-0.58l-0.97-0.82l-0.48-0.97 M68.33,20.18L67.6,21.1l-1.21,0.72l-1.55,0.39
			l-1.74,0.1l-1.64-0.24l-1.45-0.58l-0.97-0.82l-0.43-0.97 M137.81,60.43l-0.68,0.82l-1.16,0.68l-1.5,0.39l-1.59,0.1l-1.59-0.24
			l-1.3-0.53l-0.92-0.77l-0.43-0.92 M20.73,21.24l2.13-1.21 M24.02,19.36l2.9-1.69"/>
	</g>
	<path class="st1" d="M220.2,126.9c0.55-0.11,5.9-4.42,5.9-4.42"/>
	
		<ellipse transform="matrix(0.051 -0.9987 0.9987 0.051 33.6526 114.6827)" class="st1" cx="77.17" cy="39.63" rx="9.92" ry="17.61"/>
	<path class="st1" d="M59.52,39.83c-0.28,5.47,7.37,10.31,17.09,10.81s17.82-3.54,18.1-9.01"/>
	
		<ellipse transform="matrix(0.051 -0.9987 0.9987 0.051 33.6526 114.6827)" class="st1" cx="77.17" cy="39.63" rx="4.26" ry="7.56"/>
	<line class="st1" x1="64.25" y1="33.12" x2="67.06" y2="31.68"/>
	<line class="st1" x1="88.38" y1="46.95" x2="91.08" y2="45.3"/>
	<line class="st1" x1="64.47" y1="45.44" x2="67.32" y2="46.81"/>
	<line class="st1" x1="86.9" y1="32.28" x2="89.75" y2="33.65"/>
</g>
<path class="st2" d="M511.49,120.7c-2.05,0-10.53-0.09-12.85-1.21c-4.44-2.13-7.08-4.19-10.34-9.41
	c-3.26-5.22-3.16-13.23-3.16-16.76c0-3.63,0-5.8,0-6.92s0.56-1.68,1.02-1.68c0.47,0,0.93,0,0.93,0l-0.28-0.84h-0.65
	c-0.65,0-1.02-0.65-1.02-1.21c0-0.56,0-2.42,0-5.12s2.33-3.63,4.19-3.63h116.32c1.86,0,4.19,0.93,4.19,3.63s0,4.56,0,5.12
	c0,0.56-0.37,1.21-1.03,1.21h-0.65l-0.28,0.84c0,0,0.46,0,0.93,0c0.46,0,1.03,0.56,1.03,1.68s0,3.28,0,6.92
	c0,3.54,0.09,11.55-3.17,16.76c-3.26,5.21-5.89,7.27-10.33,9.41c-2.33,1.12-10.8,1.21-12.85,1.21H511.49z"/>
<path class="st3" d="M640.33,100.97h7.06c0,0,0.22-0.01,0.28,0.16v3.38c-0.06,0.17-0.28,0.15-0.28,0.15h-7.06"/>
<path class="st4" d="M640.33,100.97h7.06c0,0,0.22-0.01,0.28,0.16v3.38c-0.06,0.17-0.28,0.15-0.28,0.15h-7.06"/>
<rect x="621.58" y="100.15" class="st3" width="8.32" height="5.33"/>
<rect x="621.58" y="100.15" class="st4" width="8.32" height="5.33"/>
<line class="st5" x1="640.96" y1="100.57" x2="640.96" y2="105.08"/>
<path class="st3" d="M642.31,106.82c0.38,0,0.69-0.31,0.69-0.69V99.5c0-0.38-0.31-0.69-0.69-0.69h-14.16
	c-0.38,0-0.69,0.31-0.69,0.69v6.64c0,0.38,0.31,0.69,0.69,0.69H642.31z"/>
<path class="st4" d="M642.31,106.82c0.38,0,0.69-0.31,0.69-0.69V99.5c0-0.38-0.31-0.69-0.69-0.69h-14.16
	c-0.38,0-0.69,0.31-0.69,0.69v6.64c0,0.38,0.31,0.69,0.69,0.69H642.31z"/>
<g>
	<path d="M669.92,80.04h-21.75c-0.67,0-1.23,0.55-1.23,1.22v2.32h-1.51c-0.68,0-1.23,0.55-1.23,1.23v5.4c0,0.67,0.55,1.22,1.23,1.22
		h1.51v2.32c0,0.67,0.55,1.23,1.23,1.23h21.75c0.68,0,1.23-0.55,1.23-1.23v-12.5C671.14,80.59,670.6,80.04,669.92,80.04"/>
	<path class="st3" d="M645.43,90.47c-0.13,0-0.25-0.11-0.25-0.25v-5.4c0-0.13,0.11-0.25,0.25-0.25h1.51v5.9H645.43z"/>
	<path class="st3" d="M670.17,93.76c0,0.14-0.11,0.25-0.25,0.25h-21.75c-0.14,0-0.25-0.11-0.25-0.25v-12.5
		c0-0.14,0.11-0.25,0.25-0.25h21.75c0.13,0,0.25,0.11,0.25,0.25V93.76z"/>
	<polygon points="661.82,81.56 654.51,88.43 658.58,88.47 656.29,93.41 663.58,86.54 659.52,86.5 	"/>
</g>
<path class="st3" d="M703.03-22.03c0,0.37,0.26,0.75,0.6,0.85l15.11,5.18c0.32,0.1,0.59-0.12,0.59-0.49v-25.53
	c0-0.37-0.27-0.75-0.59-0.85l-15.11-4.57c-0.33-0.1-0.6,0.12-0.6,0.49"/>
<path class="st6" d="M703.03-22.03c0,0.37,0.26,0.75,0.6,0.85l15.11,5.18c0.32,0.1,0.59-0.12,0.59-0.49v-25.53
	c0-0.37-0.27-0.75-0.59-0.85l-15.11-4.57c-0.33-0.1-0.6,0.12-0.6,0.49V-22.03z"/>
<path class="st3" d="M716.09-28.85c-0.05,2.86-2.28,4.38-4.98,3.4c-2.7-0.98-4.85-4.09-4.81-6.95c0.05-2.85,2.28-4.38,4.98-3.4
	C713.99-34.82,716.14-31.7,716.09-28.85"/>
<path class="st7" d="M716.09-28.85c-0.05,2.86-2.28,4.38-4.98,3.4c-2.7-0.98-4.85-4.09-4.81-6.95c0.05-2.85,2.28-4.38,4.98-3.4
	C713.99-34.82,716.14-31.7,716.09-28.85z"/>
<path class="st3" d="M669.39-28.88l-4.77,3.16c-0.15,0.1-0.24,0.3-0.24,0.54v35c0,0.45,0.32,0.92,0.73,1.05l18.57,6.37
	c0.17,0.05,0.33,0.03,0.46-0.05l5.87-1.75l3.48-1.92c0.08-0.11,0.13-0.26,0.13-0.43V-23.4c0-0.47-0.34-0.94-0.75-1.07l-19.14-5.8
	c-0.18-0.06-0.36-0.03-0.49,0.05"/>
<path class="st6" d="M669.39-28.88l-4.77,3.16c-0.15,0.1-0.24,0.3-0.24,0.54v35c0,0.45,0.32,0.92,0.73,1.05l18.57,6.37
	c0.17,0.05,0.33,0.03,0.46-0.05l5.87-1.75l3.48-1.92c0.08-0.11,0.13-0.26,0.13-0.43V-23.4c0-0.47-0.34-0.94-0.75-1.07l-19.14-5.8
	c-0.18-0.06-0.36-0.03-0.49,0.05L669.39-28.88z"/>
<path class="st1" d="M684.14,17.19c0.16-0.1,0.26-0.3,0.26-0.55v-35.76c0-0.46-0.33-0.92-0.73-1.04l-18.57-5.62
	c-0.19-0.05-0.35-0.03-0.49,0.06"/>
<path class="st1" d="M690.01,15.44c0.14-0.12,0.23-0.31,0.23-0.55v-36.85c0-0.48-0.35-0.96-0.77-1.1l-19.54-5.92
	c-0.21-0.06-0.41-0.02-0.54,0.09"/>
<line class="st1" x1="684.89" y1="-20.07" x2="689.47" y2="-22.25"/>
<line class="st1" x1="690.63" y1="-22.84" x2="692.81" y2="-23.74"/>
<polygon class="st8" points="711.84,-31.32 696.99,-29.72 701,-28.24 694.54,-25.79 698.7,-24.34 705.32,-26.78 709.46,-25.06 "/>
<polyline class="st9" points="711.84,-31.32 696.99,-29.72 701,-28.24 694.54,-25.79 698.7,-24.34 705.32,-26.78 709.46,-25.06 "/>
<g>
	<path class="st10" d="M561.93,104.32c0,1.94-1.59,3.53-3.53,3.53h-21.63c-1.94,0-3.53-1.59-3.53-3.53v-3.24
		c0-1.94,1.58-3.53,3.53-3.53h21.63c1.94,0,3.53,1.59,3.53,3.53V104.32z"/>
	<path class="st11" d="M561.93,104.32c0,1.94-1.59,3.53-3.53,3.53h-21.63c-1.94,0-3.53-1.59-3.53-3.53v-3.24
		c0-1.94,1.58-3.53,3.53-3.53h21.63c1.94,0,3.53,1.59,3.53,3.53V104.32z"/>
	<path class="st12" d="M557.96,103.36c0,0.24-0.2,0.44-0.44,0.44h-19.87c-0.24,0-0.44-0.2-0.44-0.44v-1.32
		c0-0.24,0.2-0.44,0.44-0.44h19.87c0.24,0,0.44,0.2,0.44,0.44V103.36z"/>
</g>
<line class="st13" x1="486.9" y1="83.8" x2="608.34" y2="83.8"/>
<path class="st13" d="M573.37,84.84c-0.21,3.94-1,18.89-1.16,21.96c-0.19,3.54-2.8,6.05-6.89,6.05h-35.67c-4.1,0-6.7-2.51-6.89-6.05
	c-0.16-3.05-0.95-17.83-1.16-21.88"/>
<line class="st13" x1="573.37" y1="84.76" x2="607.92" y2="84.76"/>
<line class="st13" x1="487.12" y1="84.76" x2="573.37" y2="84.76"/>
<line class="st14" x1="618.54" y1="102.96" x2="612.93" y2="102.96"/>
<path class="st15" d="M557.15,102.96c0-1.84,1.48-3.32,3.32-3.32c1.84,0,3.33,1.49,3.33,3.32c0,1.84-1.49,3.33-3.33,3.33
	C558.63,106.29,557.15,104.8,557.15,102.96z"/>
<path class="st16" d="M563.8,102.96c0-1.84-1.48-3.32-3.32-3.32s-3.33,1.49-3.33,3.32c0,1.84,1.49,3.33,3.33,3.33
	S563.8,104.8,563.8,102.96"/>
<line class="st17" x1="611.05" y1="102.96" x2="564.15" y2="102.96"/>
<line class="st18" x1="618.54" y1="102.96" x2="612.93" y2="102.96"/>
<line class="st19" x1="611.05" y1="102.96" x2="562.37" y2="102.96"/>
<polygon class="st3" points="187.49,184.7 236.38,184.71 236.38,146.81 216.48,146.81 211.68,138.31 206.98,146.81 187.49,146.81 
	"/>
<polygon class="st20" points="188.39,184.71 236.38,184.71 236.38,146.81 217.38,146.81 212.58,138.31 207.88,146.81 188.39,146.81 
	"/>
<path class="st21" d="M219.86,168.8h-14.95c-1.82,0-3.3-1.48-3.3-3.3v0c0-1.82,1.48-3.3,3.3-3.3h14.95c1.82,0,3.3,1.48,3.3,3.3v0
	C223.15,167.32,221.68,168.8,219.86,168.8z"/>
<path d="M217.82,166.48h-10.61c-0.6,0-1.09-0.49-1.09-1.09l0,0c0-0.6,0.49-1.09,1.09-1.09h10.61c0.6,0,1.09,0.49,1.09,1.09l0,0
	C218.91,165.99,218.42,166.48,217.82,166.48z"/>
<polygon class="st22" points="209.18,181.72 209.18,190.42 215.58,190.42 215.58,181.72 218.98,181.72 212.38,172.12 205.78,181.72 
	"/>
<polygon class="st23" points="209.18,181.72 209.18,190.42 215.58,190.42 215.58,181.72 218.98,181.72 212.38,172.12 205.78,181.72 
	"/>
<polygon class="st22" points="209.18,181.72 209.18,190.42 215.58,190.42 215.58,181.72 218.98,181.72 212.38,172.12 205.78,181.72 
	"/>
<path class="st24" d="M212.38,240.42v-19.16"/>
<line class="st25" x1="212.38" y1="241.22" x2="212.38" y2="221.22"/>
<line class="st3" x1="212.38" y1="193.48" x2="212.38" y2="199.88"/>
<path class="st3" d="M212.38,199.88"/>
<path class="st26" d="M217.93,199.88v-5.9c0-0.27-0.22-0.5-0.5-0.5h-10.1c-0.28,0-0.5,0.22-0.5,0.5v5.9"/>
<path class="st26" d="M220.08,213.38v-12.59c0-0.5-0.41-0.91-0.91-0.91H205.5c-0.45,0-0.82,0.37-0.82,0.82v12.58
	c0,8.5-0.1,8.5,7.9,8.5C220.08,221.78,220.08,221.78,220.08,213.38z"/>
<g>
	<g id="_G23_00000047779467775155199060000002378146713353744568_">
		<g id="_S968_00000156556031868841299530000004247975300125160608_">
			<g>
				<path class="st27" d="M208.15,128.85l5.12-2.95l0.43-0.29l0.34-0.43l0.29-0.53"/>
			</g>
		</g>
	</g>
	<polyline class="st27" points="208.97,131.51 208.59,131.56 208.2,131.41 207.91,131.03 207.77,130.45 207.81,129.72 	"/>
	<path class="st27" d="M209.24,131.41l0.29-0.19l5.94-3.43l0.48-0.29l0.14-0.1l0.46-0.43c0,0,0.4-0.58,0.49-0.79
		c0.12-0.31,0.24-1.29,0.24-1.29v-0.14l-0.1-0.48v-0.05l-0.1-0.29l-0.1-0.14l-0.05-0.1l-0.19-0.1l-0.19-0.1l-0.19-0.05l-0.24,0.05"
		/>
	<polyline class="st27" points="207.91,129.67 207.91,129.62 208.15,128.85 208.3,128.56 208.44,128.27 208.68,127.98 
		208.88,127.69 209.02,127.55 209.22,127.4 209.55,127.16 215.55,123.73 216.13,123.49 	"/>
</g>
</svg>
