<?xml version="1.0" encoding="utf-8"?>
<!-- Uploaded to: SVG Repo, www.svgrepo.com, Generator: SVG Repo Mixer Tools -->
<svg fill="#000000" width="800px" height="800px" viewBox="0 0 32 32" version="1.1" xmlns="http://www.w3.org/2000/svg">
<title>primevideo</title>
<path d="M8.281 17.253c0.009-0.065 0.064-0.114 0.13-0.114 0.001 0 0.002 0 0.003 0h-0c0.041 0.002 0.080 0.014 0.112 0.036l-0.001-0.001c2.199 1.386 4.873 2.21 7.739 2.214h0.001c2.144-0.014 4.173-0.492 5.995-1.341l-0.089 0.037c0.036-0.022 0.080-0.035 0.127-0.035 0.138 0 0.25 0.112 0.25 0.25 0 0.093-0.051 0.174-0.126 0.217l-0.001 0.001c-1.748 1.303-3.95 2.087-6.336 2.087h-0c-3.017-0.002-5.75-1.217-7.738-3.184l0.001 0.001c-0.034-0.031-0.058-0.073-0.067-0.12l-0-0.001zM21.007 17.468c0.463-0.32 1.037-0.511 1.655-0.511 0.029 0 0.058 0 0.087 0.001l-0.004-0c0.050-0.005 0.109-0.008 0.168-0.008 0.32 0 0.619 0.089 0.875 0.244l-0.008-0.004c0.015 0.119 0.023 0.258 0.023 0.398 0 0.939-0.379 1.789-0.992 2.406l0-0c-0.14 0.127-0.275 0.059-0.212-0.109 0.207-0.552 0.67-1.794 0.45-2.096-0.219-0.302-1.447-0.144-1.999-0.072-0.085 0.010-0.134-0.025-0.14-0.076v-0.029c0.013-0.061 0.049-0.111 0.098-0.143l0.001-0.001zM29.56 15.111q0.596 0 0.596-0.91c0-0.604-0.2-0.905-0.596-0.905q-0.596 0-0.596 0.905c-0 0.607 0.2 0.91 0.596 0.91zM29.56 15.754c-0.023 0.001-0.049 0.002-0.075 0.002-0.384 0-0.731-0.158-0.98-0.412l-0-0c-0.238-0.279-0.383-0.644-0.383-1.043 0-0.035 0.001-0.069 0.003-0.104l-0 0.005c-0.002-0.029-0.003-0.062-0.003-0.096 0-0.398 0.145-0.763 0.385-1.044l-0.002 0.002c0.278-0.253 0.649-0.409 1.056-0.409s0.778 0.155 1.057 0.41l-0.001-0.001c0.238 0.279 0.383 0.643 0.383 1.041 0 0.034-0.001 0.067-0.003 0.1l0-0.005c0.002 0.029 0.003 0.064 0.003 0.098 0 0.399-0.145 0.764-0.385 1.046l0.002-0.002c-0.249 0.254-0.597 0.412-0.981 0.412-0.026 0-0.053-0.001-0.079-0.002l0.004 0zM26.508 13.251c-0.356 0-0.562 0.22-0.617 0.662 0.142 0.029 0.306 0.045 0.473 0.045 0.008 0 0.016-0 0.023-0h-0.001c0.016 0.001 0.035 0.002 0.054 0.002 0.131 0 0.254-0.033 0.361-0.091l-0.004 0.002c0.078-0.055 0.128-0.144 0.128-0.245 0-0.007-0-0.015-0.001-0.022l0 0.001c0-0.237-0.139-0.355-0.416-0.355zM26.43 14.463c-0.012 0-0.025 0-0.039 0-0.181 0-0.357-0.023-0.525-0.066l0.015 0.003c0.001 0.211 0.087 0.401 0.225 0.54l-0-0c0.142 0.103 0.321 0.165 0.513 0.165 0.024 0 0.047-0.001 0.071-0.003l-0.003 0c0.002 0 0.005 0 0.008 0 0.104 0 0.206-0.007 0.306-0.021l-0.012 0.001c0.174-0.027 0.323-0.060 0.469-0.101l-0.026 0.006 0.027-0.002c0.062 0 0.094 0.044 0.094 0.129v0.259c0 0.006 0.001 0.012 0.001 0.019 0 0.039-0.010 0.076-0.026 0.109l0.001-0.001c-0.025 0.030-0.057 0.052-0.095 0.065l-0.001 0c-0.252 0.1-0.544 0.157-0.849 0.157-0.005 0-0.009 0-0.014-0h0.001c-0.028 0.002-0.060 0.003-0.093 0.003-0.374 0-0.714-0.147-0.965-0.386l0.001 0.001c-0.232-0.264-0.373-0.613-0.373-0.995 0-0.035 0.001-0.070 0.004-0.104l-0 0.005c-0.002-0.029-0.003-0.063-0.003-0.097 0-0.4 0.144-0.767 0.382-1.052l-0.002 0.003c0.246-0.258 0.592-0.418 0.976-0.418 0.026 0 0.052 0.001 0.077 0.002l-0.004-0c0.021-0.001 0.046-0.002 0.071-0.002 0.28 0 0.537 0.096 0.74 0.258l-0.002-0.002c0.18 0.156 0.293 0.385 0.293 0.641 0 0.011-0 0.023-0.001 0.034l0-0.002c0.001 0.012 0.001 0.026 0.001 0.040 0 0.247-0.124 0.465-0.312 0.596l-0.002 0.002c-0.235 0.138-0.518 0.22-0.819 0.22-0.037 0-0.074-0.001-0.11-0.004l0.005 0zM23.195 15.1c0.195-0.001 0.376-0.061 0.526-0.162l-0.003 0.002v-1.512c-0.155-0.090-0.341-0.143-0.539-0.143-0.008 0-0.016 0-0.024 0l0.001-0c-0.009-0.001-0.020-0.001-0.031-0.001-0.174 0-0.327 0.089-0.416 0.224l-0.001 0.002c-0.095 0.173-0.151 0.378-0.151 0.597 0 0.031 0.001 0.062 0.003 0.092l-0-0.004c-0.002 0.026-0.003 0.056-0.003 0.086 0 0.219 0.059 0.425 0.161 0.602l-0.003-0.006c0.101 0.136 0.261 0.224 0.442 0.224 0.013 0 0.027-0.001 0.040-0.001l-0.002 0zM22.923 15.73c-0.008 0-0.016 0-0.025 0-0.23 0-0.444-0.072-0.619-0.194l0.004 0.002c-0.185-0.134-0.328-0.314-0.414-0.524l-0.003-0.008c-0.092-0.221-0.145-0.479-0.145-0.748 0-0.014 0-0.027 0-0.041l-0 0.002c-0.001-0.027-0.002-0.058-0.002-0.090 0-0.393 0.126-0.757 0.341-1.052l-0.004 0.005c0.197-0.26 0.507-0.427 0.855-0.427 0.011 0 0.022 0 0.033 0.001l-0.002-0c0.008-0 0.017-0 0.026-0 0.284 0 0.546 0.097 0.754 0.26l-0.003-0.002v-1.34c-0-0.004-0.001-0.009-0.001-0.014 0-0.037 0.013-0.071 0.035-0.098l-0 0c0.026-0.020 0.060-0.032 0.096-0.032 0.004 0 0.009 0 0.013 0.001l-0.001-0h0.545c0.008-0.002 0.017-0.003 0.027-0.003 0.065 0 0.118 0.053 0.118 0.118 0 0.010-0.001 0.020-0.004 0.030l0-0.001v3.95c0 0.005 0.001 0.010 0.001 0.015 0 0.035-0.012 0.068-0.032 0.094l0-0c-0.025 0.022-0.058 0.036-0.094 0.036-0.006 0-0.011-0-0.016-0.001l0.001 0h-0.455c-0.003 0-0.007 0-0.010 0-0.035 0-0.068-0.011-0.095-0.029l0.001 0c-0.027-0.025-0.047-0.059-0.054-0.096l-0-0.001-0.034-0.131c-0.213 0.198-0.5 0.32-0.815 0.32-0.007 0-0.014-0-0.021-0h0.001zM20.489 15.668c-0.004 0-0.008 0.001-0.012 0.001-0.037 0-0.070-0.013-0.096-0.036l0 0c-0.022-0.025-0.036-0.058-0.036-0.095 0-0.005 0-0.010 0.001-0.014l-0 0.001v-2.639c-0-0.004-0.001-0.009-0.001-0.014 0-0.037 0.013-0.072 0.036-0.098l-0 0c0.026-0.019 0.059-0.031 0.094-0.031 0.005 0 0.009 0 0.014 0.001l-0.001-0h0.545c0.005-0.001 0.011-0.001 0.017-0.001 0.036 0 0.069 0.012 0.095 0.032l-0-0c0.019 0.026 0.031 0.059 0.031 0.095 0 0.006-0 0.012-0.001 0.018l0-0.001v2.638c0 0.004 0.001 0.010 0.001 0.015 0 0.035-0.012 0.068-0.031 0.094l0-0c-0.026 0.022-0.059 0.036-0.096 0.036-0.006 0-0.012-0-0.017-0.001l0.001 0zM20.761 12.29c-0.007 0-0.015 0.001-0.022 0.001-0.124 0-0.238-0.046-0.324-0.122l0.001 0c-0.081-0.085-0.131-0.2-0.131-0.326s0.050-0.242 0.131-0.326l-0 0c0.094-0.075 0.215-0.12 0.346-0.12s0.252 0.045 0.347 0.121l-0.001-0.001c0.080 0.085 0.13 0.2 0.13 0.326s-0.049 0.241-0.13 0.326l0-0c-0.086 0.076-0.199 0.122-0.324 0.122-0.008 0-0.016-0-0.024-0.001l0.001 0zM18.237 15.668c-0.003 0-0.006 0-0.009 0-0.030 0-0.059-0.005-0.086-0.014l0.002 0.001c-0.025-0.010-0.046-0.026-0.062-0.046l-0-0c-0.019-0.025-0.035-0.055-0.047-0.086l-0.001-0.002-0.971-2.549-0.029-0.079c-0.007-0.019-0.011-0.040-0.011-0.062v-0c0-0.059 0.038-0.087 0.114-0.087h0.567c0.008-0.001 0.017-0.002 0.027-0.002 0.088 0 0.161 0.066 0.172 0.151l0 0.001 0.585 2.027 0.596-2.027c0.010-0.046 0.033-0.085 0.065-0.115l0-0c0.033-0.022 0.073-0.034 0.117-0.034 0.006 0 0.012 0 0.018 0.001l-0.001-0h0.55c0.076 0 0.114 0.027 0.114 0.085-0 0.023-0.005 0.044-0.012 0.064l0-0.001-0.027 0.081-0.971 2.548c-0.013 0.033-0.029 0.062-0.049 0.088l0.001-0.001c-0.015 0.020-0.035 0.036-0.058 0.047l-0.001 0c-0.024 0.008-0.052 0.013-0.081 0.013-0.006 0-0.012-0-0.017-0.001l0.001 0zM14.553 13.236c-0.365 0-0.575 0.225-0.632 0.675 0.145 0.030 0.312 0.046 0.482 0.046 0.009 0 0.018-0 0.026-0h-0.001c0.017 0.001 0.037 0.002 0.057 0.002 0.133 0 0.258-0.034 0.368-0.093l-0.004 0.002c0.080-0.056 0.132-0.148 0.132-0.251 0-0.007-0-0.015-0.001-0.022l0 0.001q0-0.362-0.427-0.361zM14.473 14.473c-0.010 0-0.022 0-0.035 0-0.188 0-0.37-0.023-0.545-0.066l0.016 0.003c0.002 0.215 0.090 0.409 0.231 0.55l0 0c0.146 0.105 0.329 0.168 0.526 0.168 0.024 0 0.048-0.001 0.072-0.003l-0.003 0c0.002 0 0.005 0 0.008 0 0.107 0 0.212-0.007 0.316-0.021l-0.012 0.001c0.178-0.027 0.33-0.061 0.48-0.104l-0.027 0.007 0.029-0.002q0.097 0 0.097 0.131v0.264c0 0.006 0.001 0.012 0.001 0.019 0 0.040-0.009 0.078-0.026 0.111l0.001-0.001c-0.026 0.031-0.060 0.054-0.098 0.066l-0.002 0c-0.258 0.101-0.557 0.16-0.869 0.16-0.005 0-0.011-0-0.016-0h0.001c-0.029 0.002-0.063 0.003-0.097 0.003-0.383 0-0.731-0.15-0.988-0.394l0.001 0.001c-0.238-0.268-0.383-0.623-0.383-1.013 0-0.036 0.001-0.073 0.004-0.108l-0 0.005c-0.002-0.029-0.003-0.063-0.003-0.097 0-0.409 0.148-0.784 0.392-1.074l-0.002 0.002c0.252-0.263 0.607-0.427 1-0.427 0.027 0 0.055 0.001 0.082 0.002l-0.004-0c0.022-0.001 0.047-0.002 0.072-0.002 0.287 0 0.551 0.098 0.76 0.262l-0.003-0.002c0.185 0.159 0.301 0.393 0.301 0.654 0 0.012-0 0.023-0.001 0.035l0-0.002c0.001 0.012 0.001 0.026 0.001 0.040 0 0.253-0.127 0.476-0.321 0.608l-0.003 0.002c-0.24 0.141-0.529 0.225-0.837 0.225-0.040 0-0.079-0.001-0.118-0.004l0.005 0zM8.991 13.023c0.157-0.11 0.336-0.206 0.527-0.278l0.017-0.006c0.148-0.053 0.319-0.084 0.497-0.084 0.001 0 0.002 0 0.003 0h-0c0.020-0.002 0.044-0.003 0.068-0.003 0.277 0 0.52 0.147 0.654 0.367l0.002 0.003c0.158-0.112 0.338-0.207 0.532-0.276l0.016-0.005c0.157-0.055 0.338-0.086 0.527-0.086 0.001 0 0.002 0 0.003 0h-0c0.015-0.001 0.032-0.002 0.050-0.002 0.22 0 0.42 0.086 0.569 0.226l-0-0c0.137 0.151 0.22 0.352 0.22 0.573 0 0.018-0.001 0.036-0.002 0.054l0-0.002v2.022c0 0.004 0.001 0.009 0.001 0.015 0 0.036-0.012 0.068-0.032 0.095l0-0c-0.025 0.022-0.058 0.035-0.094 0.035-0.006 0-0.012-0-0.018-0.001l0.001 0h-0.547c-0.005 0.001-0.010 0.001-0.015 0.001-0.035 0-0.068-0.013-0.092-0.035l0 0c-0.022-0.026-0.035-0.060-0.035-0.097 0-0.004 0-0.009 0.001-0.013l-0 0.001v-1.838c0-0.26-0.115-0.39-0.347-0.39-0.227 0.003-0.44 0.057-0.629 0.152l0.008-0.004v2.079c0 0.004 0.001 0.009 0.001 0.015 0 0.036-0.012 0.068-0.032 0.095l0-0c-0.025 0.022-0.058 0.035-0.094 0.035-0.006 0-0.013-0-0.019-0.001l0.001 0h-0.546c-0.005 0.001-0.010 0.001-0.015 0.001-0.035 0-0.068-0.013-0.092-0.035l0 0c-0.022-0.025-0.036-0.058-0.036-0.095 0-0.005 0-0.010 0.001-0.014l-0 0.001v-1.838c0-0.26-0.116-0.39-0.347-0.39-0.229 0.001-0.445 0.058-0.635 0.157l0.008-0.004v2.074c0 0.004 0.001 0.009 0.001 0.015 0 0.036-0.012 0.068-0.032 0.095l0-0c-0.025 0.022-0.058 0.035-0.094 0.035-0.006 0-0.012-0-0.018-0.001l0.001 0h-0.548c-0.004 0-0.009 0.001-0.014 0.001-0.036 0-0.068-0.013-0.093-0.035l0 0c-0.021-0.026-0.034-0.059-0.034-0.095 0-0.005 0-0.009 0.001-0.014l-0 0.001v-2.64c-0.001-0.005-0.001-0.011-0.001-0.016 0-0.037 0.013-0.070 0.035-0.097l-0 0c0.026-0.020 0.058-0.032 0.094-0.032 0.005 0 0.010 0 0.014 0.001l-0.001-0h0.411c0.004-0 0.008-0.001 0.013-0.001 0.074 0 0.136 0.055 0.147 0.126l0 0.001zM6.695 12.886c-0-0.004-0.001-0.009-0.001-0.014 0-0.037 0.013-0.071 0.035-0.098l-0 0c0.026-0.020 0.059-0.032 0.095-0.032 0.005 0 0.009 0 0.014 0.001l-0.001-0h0.547c0.005-0.001 0.011-0.001 0.017-0.001 0.036 0 0.068 0.012 0.095 0.032l-0-0c0.020 0.026 0.032 0.059 0.032 0.095 0 0.006-0 0.012-0.001 0.018l0-0.001v2.64c0 0.004 0.001 0.009 0.001 0.015 0 0.036-0.012 0.068-0.032 0.095l0-0c-0.026 0.022-0.060 0.036-0.097 0.036-0.005 0-0.011-0-0.016-0.001l0.001 0h-0.546c-0.003 0-0.007 0-0.011 0-0.037 0-0.071-0.013-0.097-0.036l0 0c-0.021-0.026-0.034-0.059-0.034-0.095 0-0.005 0-0.009 0.001-0.014l-0 0.001zM7.111 12.29c-0.007 0-0.015 0.001-0.024 0.001-0.124 0-0.237-0.046-0.324-0.121l0.001 0.001c-0.081-0.077-0.132-0.186-0.132-0.306 0-0.007 0-0.015 0.001-0.022l-0 0.001c-0-0.006-0.001-0.014-0.001-0.021 0-0.12 0.051-0.227 0.132-0.303l0-0c0.095-0.076 0.216-0.121 0.348-0.121s0.252 0.045 0.348 0.121l-0.001-0.001c0.081 0.077 0.132 0.185 0.132 0.305 0 0.007-0 0.015-0.001 0.022l0-0.001c0 0.006 0 0.013 0 0.020 0 0.121-0.051 0.23-0.132 0.307l-0 0c-0.086 0.075-0.2 0.12-0.324 0.12-0.008 0-0.017-0-0.025-0.001l0.001 0zM5.204 13.177c0.121-0.142 0.263-0.261 0.422-0.353l0.008-0.004c0.124-0.067 0.272-0.106 0.428-0.106 0.001 0 0.002 0 0.003 0h0.078c0.004-0 0.009-0.001 0.014-0.001 0.038 0 0.073 0.012 0.101 0.032l-0.001-0c0.022 0.026 0.035 0.060 0.035 0.096 0 0.006-0 0.011-0.001 0.017l0-0.001v0.481c0 0.004 0.001 0.009 0.001 0.014 0 0.036-0.012 0.069-0.032 0.095l0-0c-0.026 0.022-0.059 0.035-0.095 0.035-0.006 0-0.011-0-0.017-0.001l0.001 0q-0.051-0-0.102-0.005c-0.039-0.003-0.084-0.005-0.129-0.005-0.124 0-0.245 0.013-0.361 0.038l0.011-0.002c-0.121 0.023-0.228 0.055-0.33 0.099l0.010-0.004v1.924c0 0.004 0.001 0.009 0.001 0.015 0 0.036-0.012 0.068-0.032 0.095l0-0c-0.025 0.022-0.059 0.036-0.096 0.036-0.005 0-0.011-0-0.016-0.001l0.001 0h-0.546c-0.006 0.001-0.013 0.002-0.020 0.002-0.069 0-0.125-0.056-0.125-0.125 0-0.007 0.001-0.014 0.002-0.021l-0 0.001v-2.641c-0-0.005-0.001-0.010-0.001-0.015 0-0.037 0.013-0.071 0.036-0.098l-0 0c0.026-0.020 0.059-0.032 0.094-0.032 0.005 0 0.010 0 0.015 0.001l-0.001-0h0.41c0.004-0 0.008-0.001 0.013-0.001 0.074 0 0.135 0.054 0.147 0.125l0 0.001zM2.395 13.286c-0.206 0-0.399 0.058-0.563 0.158l0.005-0.003v1.507c0.156 0.097 0.344 0.155 0.547 0.155 0.004 0 0.008-0 0.012-0h-0.001c0.012 0.001 0.026 0.002 0.040 0.002 0.176 0 0.332-0.086 0.429-0.217l0.001-0.001c0.097-0.172 0.155-0.377 0.155-0.596 0-0.032-0.001-0.064-0.004-0.096l0 0.004c0.002-0.028 0.003-0.060 0.003-0.093 0-0.22-0.056-0.427-0.154-0.607l0.003 0.007c-0.098-0.133-0.255-0.219-0.431-0.219-0.015 0-0.030 0.001-0.044 0.002l0.002-0zM1.004 12.886c-0-0.004-0.001-0.010-0.001-0.015 0-0.037 0.014-0.071 0.036-0.098l-0 0c0.026-0.020 0.058-0.032 0.094-0.032 0.005 0 0.010 0 0.014 0.001l-0.001-0h0.411c0.004-0 0.009-0.001 0.013-0.001 0.074 0 0.135 0.055 0.145 0.126l0 0.001 0.040 0.149c0.115-0.11 0.252-0.199 0.404-0.259l0.009-0.003c0.146-0.062 0.316-0.098 0.495-0.099h0c0.012-0 0.026-0.001 0.040-0.001 0.338 0 0.64 0.159 0.833 0.406l0.002 0.002c0.202 0.28 0.324 0.629 0.324 1.007 0 0.033-0.001 0.065-0.003 0.097l0-0.004c0 0.014 0.001 0.030 0.001 0.046 0 0.284-0.059 0.554-0.164 0.798l0.005-0.013c-0.095 0.223-0.244 0.407-0.43 0.543l-0.004 0.003c-0.17 0.12-0.382 0.193-0.61 0.193-0.006 0-0.012-0-0.018-0h0.001c-0.002 0-0.005 0-0.007 0-0.156 0-0.307-0.027-0.446-0.078l0.009 0.003c-0.139-0.047-0.259-0.117-0.361-0.206l0.001 0.001v1.253c0.001 0.005 0.001 0.011 0.001 0.017 0 0.036-0.012 0.069-0.032 0.096l0-0c-0.027 0.020-0.060 0.032-0.096 0.032-0.006 0-0.011-0-0.017-0.001l0.001 0h-0.545c-0.004 0-0.008 0-0.013 0-0.036 0-0.069-0.012-0.095-0.032l0 0c-0.022-0.026-0.036-0.059-0.036-0.096 0-0.006 0-0.012 0.001-0.017l-0 0.001z"></path>
</svg>